<?xml version="1.0" encoding="utf-8"?>
<!-- Generator: Adobe Illustrator 24.2.1, SVG Export Plug-In . SVG Version: 6.00 Build 0)  -->
<svg version="1.1" id="Layer_1" xmlns="http://www.w3.org/2000/svg" xmlns:xlink="http://www.w3.org/1999/xlink" x="0px" y="0px"
	 viewBox="0 0 504 288" style="enable-background:new 0 0 504 288;" xml:space="preserve">
<style type="text/css">
	.st0{fill:#003399;}
	.st1{clip-path:url(#SVGID_2_);}
	.st2{fill:#00B19C;}
	.st3{fill:#66CC00;}
	.st4{fill:#00FF00;}
	.st5{clip-path:url(#SVGID_4_);fill:#FF6633;}
	.st6{clip-path:url(#SVGID_6_);fill:#FF9933;}
	.st7{clip-path:url(#SVGID_8_);fill:#FF6633;}
	.st8{clip-path:url(#SVGID_10_);fill:#FF9933;}
	.st9{clip-path:url(#SVGID_12_);}
	.st10{clip-path:url(#SVGID_14_);}
	.st11{clip-path:url(#SVGID_16_);}
	.st12{clip-path:url(#SVGID_18_);}
	.st13{clip-path:url(#SVGID_20_);}
	.st14{fill:#009900;}
</style>
<g>
	<g>
		<g>
			<rect id="SVGID_1535_" x="-0.6" y="-0.4" class="st0" width="504" height="288"/>
		</g>
		<g>
			<defs>
				<rect id="SVGID_1_" width="504" height="288"/>
			</defs>
			<clipPath id="SVGID_2_">
				<use xlink:href="#SVGID_1_"  style="overflow:visible;"/>
			</clipPath>
			<g class="st1">
				<path class="st2" d="M418.9,112.2c1.8,0,3.3-1.5,3.3-3.3c0-1.8-1.5-3.3-3.3-3.3s-3.3,1.5-3.3,3.3
					C415.6,110.7,417,112.2,418.9,112.2z"/>
				<path class="st2" d="M428.6,111.9c1.7,0,3-1.4,3-3c0-1.7-1.4-3-3-3c-1.7,0-3,1.4-3,3C425.6,110.5,426.9,111.9,428.6,111.9z"/>
				<path class="st2" d="M424.9,119.5c1.7,0,3-1.4,3-3c0-1.7-1.4-3-3-3c-1.7,0-3,1.4-3,3C421.9,118.1,423.3,119.5,424.9,119.5z"/>
				<path class="st2" d="M416.7,121.4c1.7,0,3-1.4,3-3c0-1.7-1.4-3-3-3c-1.7,0-3,1.4-3,3S415,121.4,416.7,121.4z"/>
				<circle class="st2" cx="410.1" cy="113.1" r="3"/>
				<circle class="st2" cx="410.1" cy="104.6" r="3"/>
				<path class="st2" d="M416.7,102.3c1.6,0,3-1.3,3-3s-1.3-3-3-3c-1.6,0-3,1.3-3,3S415.1,102.3,416.7,102.3z"/>
				<path class="st2" d="M424.9,104.2c1.7,0,3-1.3,3-3c0-1.7-1.3-3-3-3s-3,1.3-3,3C421.9,102.9,423.3,104.2,424.9,104.2z"/>
				<path class="st2" d="M438.3,111.4c1.4,0,2.5-1.1,2.5-2.5s-1.1-2.5-2.5-2.5s-2.5,1.1-2.5,2.5S436.9,111.4,438.3,111.4z"/>
				<path class="st2" d="M436.4,119.8c1.4,0,2.5-1.1,2.5-2.5s-1.1-2.5-2.5-2.5s-2.5,1.1-2.5,2.5C433.9,118.7,435,119.8,436.4,119.8z
					"/>
				<path class="st2" d="M431,126.6c1.4,0,2.5-1.1,2.5-2.5s-1.1-2.5-2.5-2.5s-2.5,1.1-2.5,2.5C428.5,125.5,429.6,126.6,431,126.6z"
					/>
				<path class="st2" d="M401.3,102.9c1.4,0,2.5-1.1,2.5-2.5s-1.1-2.5-2.5-2.5s-2.5,1.1-2.5,2.5S400,102.9,401.3,102.9z"/>
				<circle class="st2" cx="406.7" cy="93.6" r="2.5"/>
				<path class="st2" d="M414.5,92.4c1.4,0,2.5-1.1,2.5-2.5s-1.1-2.5-2.5-2.5s-2.5,1.1-2.5,2.5C412.1,91.2,413.2,92.4,414.5,92.4z"
					/>
				<path class="st2" d="M423.2,92.4c1.4,0,2.5-1.1,2.5-2.5s-1.1-2.5-2.5-2.5c-1.4,0-2.5,1.1-2.5,2.5S421.8,92.4,423.2,92.4z"/>
				<circle class="st2" cx="431" cy="93.6" r="2.5"/>
				<path class="st2" d="M436.4,102.9c1.4,0,2.5-1.1,2.5-2.5s-1.1-2.5-2.5-2.5c-1.4,0-2.5,1.1-2.5,2.5S435,102.9,436.4,102.9z"/>
				<path class="st2" d="M448.1,110.9c1.1,0,2.1-0.9,2.1-2.1s-0.9-2.1-2.1-2.1s-2.1,0.9-2.1,2.1C446,110,446.9,110.9,448.1,110.9z"
					/>
				<path class="st2" d="M446.8,119.5c1.1,0,2.1-0.9,2.1-2.1s-0.9-2.1-2.1-2.1s-2.1,0.9-2.1,2.1
					C444.7,118.6,445.6,119.5,446.8,119.5z"/>
				<circle class="st2" cx="412.4" cy="80.4" r="2"/>
				<path class="st2" d="M421.1,81.7c1.1,0,2-0.9,2-2c0-1.1-0.9-2-2-2s-2,0.9-2,2C419.1,80.8,420,81.7,421.1,81.7z"/>
				<circle class="st2" cx="429.5" cy="81.7" r="2"/>
				<path class="st2" d="M437.1,88c1.1,0,2-0.9,2-2c0-1.1-0.9-2-2-2c-1.1,0-2,0.9-2,2C435.1,87.1,436,88,437.1,88z"/>
				<circle class="st2" cx="443" cy="92.4" r="2"/>
				<path class="st2" d="M446.8,102.3c1.1,0,2-0.9,2-2c0-1.1-0.9-2-2-2c-1.1,0-2,0.9-2,2S445.7,102.3,446.8,102.3z"/>
				<path class="st2" d="M457.8,110.4c0.9,0,1.6-0.7,1.6-1.6c0-0.9-0.7-1.6-1.6-1.6c-0.9,0-1.6,0.7-1.6,1.6
					C456.2,109.7,456.9,110.4,457.8,110.4z"/>
				<path class="st2" d="M456.8,119.1c0.9,0,1.6-0.7,1.6-1.6c0-0.9-0.7-1.6-1.6-1.6c-0.9,0-1.6,0.7-1.6,1.6
					C455.3,118.4,456,119.1,456.8,119.1z"/>
				<circle class="st2" cx="410.2" cy="70.9" r="1.5"/>
				<circle class="st2" cx="418.9" cy="69.9" r="1.5"/>
				<circle class="st2" cx="427.5" cy="70.9" r="1.5"/>
				<circle class="st2" cx="435.8" cy="73.8" r="1.5"/>
				<path class="st2" d="M443.1,79.9c0.9,0,1.5-0.7,1.5-1.5s-0.7-1.5-1.5-1.5c-0.9,0-1.5,0.7-1.5,1.5S442.3,79.9,443.1,79.9z"/>
				<path class="st2" d="M449.3,86.1c0.9,0,1.5-0.7,1.5-1.5c0-0.8-0.7-1.5-1.5-1.5s-1.5,0.7-1.5,1.5
					C447.8,85.4,448.5,86.1,449.3,86.1z"/>
				<path class="st2" d="M453.9,93.5c0.9,0,1.5-0.7,1.5-1.5c0-0.8-0.7-1.5-1.5-1.5c-0.9,0-1.5,0.7-1.5,1.5S453.1,93.5,453.9,93.5z"
					/>
				<path class="st2" d="M456.8,101.7c0.9,0,1.5-0.7,1.5-1.5c0-0.8-0.7-1.5-1.5-1.5c-0.9,0-1.5,0.7-1.5,1.5
					C455.3,101,456,101.7,456.8,101.7z"/>
				<path class="st2" d="M467.5,109.9c0.6,0,1.1-0.5,1.1-1.1s-0.5-1.1-1.1-1.1c-0.6,0-1.1,0.5-1.1,1.1
					C466.5,109.4,467,109.9,467.5,109.9z"/>
				<path class="st2" d="M416.7,61.3c0.6,0,1-0.5,1-1c0-0.6-0.5-1-1-1c-0.6,0-1,0.5-1,1C415.7,60.8,416.1,61.3,416.7,61.3z"/>
				<circle class="st2" cx="425.4" cy="60.6" r="1"/>
				<path class="st2" d="M433.9,63.6c0.6,0,1-0.5,1-1c0-0.6-0.5-1-1-1c-0.6,0-1,0.5-1,1S433.3,63.6,433.9,63.6z"/>
				<path class="st2" d="M441.9,67c0.6,0,1-0.5,1-1c0-0.6-0.5-1-1-1c-0.6,0-1,0.5-1,1C440.9,66.6,441.4,67,441.9,67z"/>
				<circle class="st2" cx="449.2" cy="70.8" r="1"/>
				<path class="st2" d="M455.5,77.9c0.6,0,1-0.5,1-1s-0.5-1-1-1s-1,0.5-1,1S455,77.9,455.5,77.9z"/>
				<path class="st2" d="M460.6,84.9c0.6,0,1.1-0.5,1.1-1.1c0-0.6-0.5-1.1-1.1-1.1c-0.6,0-1.1,0.5-1.1,1.1
					C459.6,84.5,460.1,84.9,460.6,84.9z"/>
				<path class="st2" d="M464.4,92.8c0.6,0,1.1-0.5,1.1-1.1s-0.5-1.1-1.1-1.1s-1.1,0.5-1.1,1.1S463.9,92.8,464.4,92.8z"/>
				<circle class="st2" cx="466.8" cy="100.2" r="1.1"/>
				<path class="st2" d="M477.3,109.4c0.3,0,0.6-0.3,0.6-0.6s-0.3-0.6-0.6-0.6s-0.6,0.3-0.6,0.6S477,109.4,477.3,109.4z"/>
				<circle class="st2" cx="405.9" cy="51.9" r="0.5"/>
				<path class="st2" d="M414.5,51.1c0.3,0,0.5-0.2,0.5-0.5c0-0.3-0.2-0.5-0.5-0.5s-0.5,0.2-0.5,0.5S414.2,51.1,414.5,51.1z"/>
				<path class="st2" d="M423.2,51.1c0.3,0,0.5-0.2,0.5-0.5c0-0.3-0.2-0.5-0.5-0.5c-0.3,0-0.5,0.2-0.5,0.5S423,51.1,423.2,51.1z"/>
				<circle class="st2" cx="431.9" cy="51.9" r="0.5"/>
				<path class="st2" d="M440.2,55c0.3,0,0.5-0.2,0.5-0.5s-0.2-0.5-0.5-0.5s-0.5,0.2-0.5,0.5S439.9,55,440.2,55z"/>
				<circle class="st2" cx="448.1" cy="58.3" r="0.5"/>
				<path class="st2" d="M455.3,63.7c0.3,0,0.5-0.2,0.5-0.5s-0.2-0.5-0.5-0.5s-0.5,0.2-0.5,0.5S455,63.7,455.3,63.7z"/>
				<circle class="st2" cx="461.7" cy="69.1" r="0.5"/>
				<path class="st2" d="M467.1,76.5c0.3,0,0.5-0.2,0.5-0.5c0-0.3-0.2-0.5-0.5-0.5s-0.5,0.2-0.5,0.5
					C466.6,76.3,466.8,76.5,467.1,76.5z"/>
				<path class="st2" d="M471.5,84.1c0.3,0,0.6-0.3,0.6-0.6s-0.3-0.6-0.6-0.6s-0.6,0.3-0.6,0.6C470.9,83.8,471.2,84.1,471.5,84.1z"
					/>
				<path class="st2" d="M474.7,92.2c0.3,0,0.6-0.3,0.6-0.6s-0.3-0.6-0.6-0.6s-0.6,0.3-0.6,0.6C474.1,91.9,474.4,92.2,474.7,92.2z"
					/>
				<circle class="st2" cx="476.6" cy="100.1" r="0.6"/>
				<path class="st3" d="M487,109c0.1,0,0.1,0,0.1-0.1c0-0.1,0-0.1-0.1-0.1s-0.1,0-0.1,0.1C486.9,108.9,486.9,109,487,109z"/>
				<path class="st2" d="M473.5,149.7c0.1,0,0.1,0,0.1-0.1s0-0.1-0.1-0.1s-0.1,0-0.1,0.1C473.4,149.7,473.4,149.7,473.5,149.7z"/>
				<g>
					<path class="st4" d="M423.2,130.4c1.4,0,2.5-1.1,2.5-2.5s-1.1-2.5-2.5-2.5s-2.5,1.1-2.5,2.5
						C420.7,129.2,421.8,130.4,423.2,130.4z"/>
					<path class="st4" d="M414.5,130.4c1.4,0,2.5-1.1,2.5-2.5s-1.1-2.5-2.5-2.5s-2.5,1.1-2.5,2.5S413.1,130.4,414.5,130.4z"/>
					<path class="st4" d="M406.7,126.6c1.4,0,2.5-1.1,2.5-2.5s-1.1-2.5-2.5-2.5s-2.5,1.1-2.5,2.5
						C404.2,125.5,405.4,126.6,406.7,126.6z"/>
					<path class="st4" d="M401.3,119.8c1.4,0,2.5-1.1,2.5-2.5s-1.1-2.5-2.5-2.5c-1.4,0-2.5,1.1-2.5,2.5
						C398.8,118.7,399.9,119.8,401.3,119.8z"/>
					<path class="st4" d="M399.4,111.3c1.4,0,2.5-1.1,2.5-2.5s-1.1-2.5-2.5-2.5s-2.5,1.1-2.5,2.5S398,111.3,399.4,111.3z"/>
					<path class="st4" d="M443,127.3c1.1,0,2.1-0.9,2.1-2.1s-0.9-2.1-2.1-2.1s-2.1,0.9-2.1,2.1C440.9,126.4,441.9,127.3,443,127.3z"
						/>
					<path class="st4" d="M437.1,133.7c1.1,0,2.1-0.9,2.1-2.1s-0.9-2.1-2.1-2.1s-2.1,0.9-2.1,2.1S435.9,133.7,437.1,133.7z"/>
					<path class="st4" d="M429.5,138.1c1.1,0,2.1-0.9,2.1-2.1s-0.9-2.1-2.1-2.1s-2.1,0.9-2.1,2.1S428.4,138.1,429.5,138.1z"/>
					<path class="st4" d="M421.1,140c1.1,0,2.1-0.9,2.1-2.1s-0.9-2.1-2.1-2.1s-2.1,0.9-2.1,2.1S419.9,140,421.1,140z"/>
					<path class="st4" d="M412.4,139.3c1.1,0,2-0.9,2-2s-0.9-2-2-2c-1.1,0-2,0.9-2,2C410.4,138.4,411.3,139.3,412.4,139.3z"/>
					<path class="st4" d="M404.3,136.2c1.1,0,2-0.9,2-2s-0.9-2-2-2s-2,0.9-2,2C402.2,135.3,403.2,136.2,404.3,136.2z"/>
					<circle class="st4" cx="397.5" cy="128.7" r="2"/>
					<circle class="st4" cx="392.6" cy="121.5" r="2"/>
					<circle class="st4" cx="390" cy="113.2" r="2"/>
					<path class="st4" d="M390,106.5c1.1,0,2-0.9,2-2c0-1.1-0.9-2-2-2s-2,0.9-2,2C388,105.6,388.9,106.5,390,106.5z"/>
					<path class="st4" d="M392.6,98.2c1.1,0,2-0.9,2-2c0-1.1-0.9-2-2-2s-2,0.9-2,2C390.6,97.3,391.5,98.2,392.6,98.2z"/>
					<path class="st4" d="M397.5,91c1.1,0,2-0.9,2-2c0-1.1-0.9-2-2-2s-2,0.9-2,2C395.5,90.1,396.4,91,397.5,91z"/>
					<circle class="st4" cx="404.3" cy="83.6" r="2"/>
					<path class="st4" d="M453.9,127.3c0.9,0,1.6-0.7,1.6-1.6c0-0.9-0.7-1.6-1.6-1.6c-0.9,0-1.6,0.7-1.6,1.6
						S453.1,127.3,453.9,127.3z"/>
					<path class="st4" d="M449.3,134.7c0.9,0,1.6-0.7,1.6-1.6s-0.7-1.6-1.6-1.6s-1.6,0.7-1.6,1.6S448.4,134.7,449.3,134.7z"/>
					<path class="st4" d="M443.1,140.9c0.9,0,1.6-0.7,1.6-1.6s-0.7-1.6-1.6-1.6c-0.9,0-1.6,0.7-1.6,1.6S442.3,140.9,443.1,140.9z"/>
					<path class="st4" d="M435.8,145.5c0.9,0,1.6-0.7,1.6-1.6c0-0.9-0.7-1.6-1.6-1.6s-1.6,0.7-1.6,1.6
						C434.2,144.8,434.9,145.5,435.8,145.5z"/>
					<path class="st4" d="M427.5,148.4c0.9,0,1.6-0.7,1.6-1.6s-0.7-1.6-1.6-1.6s-1.6,0.7-1.6,1.6C426,147.7,426.7,148.4,427.5,148.4
						z"/>
					<path class="st4" d="M418.9,149.3c0.9,0,1.6-0.7,1.6-1.6s-0.7-1.6-1.6-1.6s-1.6,0.7-1.6,1.6S418,149.3,418.9,149.3z"/>
					<path class="st4" d="M410.2,148.3c0.9,0,1.5-0.7,1.5-1.5c0-0.9-0.7-1.5-1.5-1.5c-0.9,0-1.5,0.7-1.5,1.5
						C408.7,147.7,409.4,148.3,410.2,148.3z"/>
					<path class="st4" d="M402,145.5c0.9,0,1.5-0.7,1.5-1.5c0-0.9-0.7-1.5-1.5-1.5c-0.9,0-1.5,0.7-1.5,1.5
						C400.4,144.8,401.1,145.5,402,145.5z"/>
					<circle class="st4" cx="394.6" cy="139.3" r="1.5"/>
					<circle class="st4" cx="388.4" cy="133.1" r="1.5"/>
					<path class="st4" d="M383.8,127.3c0.8,0,1.5-0.7,1.5-1.5c0-0.8-0.7-1.5-1.5-1.5c-0.8,0-1.5,0.7-1.5,1.5
						C382.3,126.6,383,127.3,383.8,127.3z"/>
					<path class="st4" d="M380.9,119c0.8,0,1.5-0.7,1.5-1.5c0-0.8-0.7-1.5-1.5-1.5c-0.8,0-1.5,0.7-1.5,1.5S380.1,119,380.9,119z"/>
					<circle class="st4" cx="379.9" cy="108.8" r="1.5"/>
					<path class="st4" d="M380.9,101.7c0.8,0,1.5-0.7,1.5-1.5s-0.7-1.5-1.5-1.5c-0.8,0-1.5,0.7-1.5,1.5S380.1,101.7,380.9,101.7z"/>
					<circle class="st4" cx="383.8" cy="92" r="1.5"/>
					<path class="st4" d="M388.4,86.1c0.8,0,1.5-0.7,1.5-1.5c0-0.8-0.7-1.5-1.5-1.5c-0.8,0-1.5,0.7-1.5,1.5
						C386.9,85.4,387.6,86.1,388.4,86.1z"/>
					<circle class="st4" cx="394.6" cy="78.4" r="1.5"/>
					<path class="st4" d="M402,75.3c0.8,0,1.5-0.7,1.5-1.5s-0.7-1.5-1.5-1.5c-0.8,0-1.5,0.7-1.5,1.5S401.1,75.3,402,75.3z"/>
					<path class="st4" d="M466.8,118.6c0.6,0,1.1-0.5,1.1-1.1c0-0.6-0.5-1.1-1.1-1.1s-1.1,0.5-1.1,1.1
						C465.7,118.1,466.2,118.6,466.8,118.6z"/>
					<path class="st4" d="M464.4,127c0.6,0,1.1-0.5,1.1-1.1c0-0.6-0.5-1.1-1.1-1.1s-1.1,0.5-1.1,1.1
						C463.4,126.5,463.9,127,464.4,127z"/>
					<path class="st4" d="M460.6,134.9c0.6,0,1.1-0.5,1.1-1.1c0-0.6-0.5-1.1-1.1-1.1c-0.6,0-1.1,0.5-1.1,1.1
						C459.6,134.4,460.1,134.9,460.6,134.9z"/>
					<circle class="st4" cx="455.5" cy="140.9" r="1.1"/>
					<path class="st4" d="M449.2,148c0.6,0,1.1-0.5,1.1-1.1s-0.5-1.1-1.1-1.1s-1.1,0.5-1.1,1.1C448.1,147.5,448.6,148,449.2,148z"/>
					<path class="st4" d="M441.9,152.8c0.6,0,1.1-0.5,1.1-1.1s-0.5-1.1-1.1-1.1s-1.1,0.5-1.1,1.1
						C440.9,152.3,441.3,152.8,441.9,152.8z"/>
					<path class="st4" d="M433.9,156.2c0.6,0,1.1-0.5,1.1-1.1s-0.5-1.1-1.1-1.1s-1.1,0.5-1.1,1.1S433.3,156.2,433.9,156.2z"/>
					<circle class="st4" cx="425.4" cy="157.1" r="1.1"/>
					<circle class="st4" cx="416.7" cy="157.5" r="1.1"/>
					<path class="st4" d="M408,157.3c0.6,0,1.1-0.5,1.1-1.1s-0.5-1.1-1.1-1.1s-1.1,0.5-1.1,1.1S407.5,157.3,408,157.3z"/>
					<path class="st4" d="M399.7,154.6c0.6,0,1.1-0.5,1.1-1.1s-0.5-1.1-1.1-1.1s-1.1,0.5-1.1,1.1S399.2,154.6,399.7,154.6z"/>
					<path class="st4" d="M392.1,150.5c0.6,0,1.1-0.5,1.1-1.1s-0.5-1.1-1.1-1.1s-1.1,0.5-1.1,1.1S391.5,150.5,392.1,150.5z"/>
					<path class="st4" d="M385.2,145c0.6,0,1-0.5,1-1c0-0.6-0.5-1-1-1c-0.6,0-1,0.5-1,1S384.7,145,385.2,145z"/>
					<path class="st4" d="M379.5,138.5c0.6,0,1-0.5,1-1c0-0.6-0.5-1-1-1c-0.6,0-1,0.5-1,1S378.9,138.5,379.5,138.5z"/>
					<circle class="st4" cx="375" cy="130" r="1"/>
					<circle class="st4" cx="372" cy="121.8" r="1"/>
					<circle class="st4" cx="370.4" cy="113.2" r="1"/>
					<path class="st4" d="M370.4,105.5c0.6,0,1-0.5,1-1s-0.5-1-1-1s-1,0.5-1,1S369.8,105.5,370.4,105.5z"/>
					<path class="st4" d="M372,96.9c0.6,0,1-0.5,1-1c0-0.6-0.5-1-1-1s-1,0.5-1,1S371.4,96.9,372,96.9z"/>
					<circle class="st4" cx="375" cy="87.7" r="1"/>
					<path class="st4" d="M379.5,81.3c0.6,0,1-0.5,1-1c0-0.6-0.5-1-1-1c-0.6,0-1,0.5-1,1C378.5,80.8,378.9,81.3,379.5,81.3z"/>
					<circle class="st4" cx="385.2" cy="73.7" r="1"/>
					<path class="st4" d="M392.1,69.2c0.6,0,1-0.4,1-1c0-0.6-0.4-1-1-1c-0.6,0-1,0.4-1,1C391.1,68.8,391.5,69.2,392.1,69.2z"/>
					<circle class="st4" cx="399.7" cy="64.1" r="1"/>
					<path class="st4" d="M408,62.4c0.6,0,1-0.5,1-1s-0.5-1-1-1c-0.6,0-1,0.5-1,1C407,62,407.5,62.4,408,62.4z"/>
					<path class="st4" d="M476.6,118.1c0.3,0,0.6-0.3,0.6-0.6s-0.3-0.6-0.6-0.6s-0.6,0.3-0.6,0.6
						C476.1,117.9,476.3,118.1,476.6,118.1z"/>
					<circle class="st4" cx="474.7" cy="126.1" r="0.6"/>
					<path class="st4" d="M471.5,134.8c0.3,0,0.6-0.3,0.6-0.6s-0.3-0.6-0.6-0.6s-0.6,0.3-0.6,0.6S471.2,134.8,471.5,134.8z"/>
					<path class="st4" d="M467.1,142.3c0.3,0,0.6-0.3,0.6-0.6s-0.3-0.6-0.6-0.6s-0.6,0.3-0.6,0.6S466.8,142.3,467.1,142.3z"/>
					<path class="st4" d="M461.7,149.1c0.3,0,0.6-0.3,0.6-0.6s-0.3-0.6-0.6-0.6s-0.6,0.3-0.6,0.6
						C461.1,148.9,461.4,149.1,461.7,149.1z"/>
					<path class="st4" d="M455.3,155.1c0.3,0,0.6-0.3,0.6-0.6s-0.3-0.6-0.6-0.6s-0.6,0.3-0.6,0.6S455,155.1,455.3,155.1z"/>
					<path class="st4" d="M448.1,160c0.3,0,0.6-0.3,0.6-0.6s-0.3-0.6-0.6-0.6s-0.6,0.3-0.6,0.6C447.5,159.7,447.8,160,448.1,160z"/>
					<path class="st4" d="M440.2,163.8c0.3,0,0.6-0.3,0.6-0.6s-0.3-0.6-0.6-0.6s-0.6,0.3-0.6,0.6S439.9,163.8,440.2,163.8z"/>
					<path class="st4" d="M431.9,166.3c0.3,0,0.6-0.3,0.6-0.6s-0.3-0.6-0.6-0.6s-0.6,0.3-0.6,0.6
						C431.3,166.1,431.6,166.3,431.9,166.3z"/>
					<path class="st4" d="M423.2,167.6c0.3,0,0.6-0.3,0.6-0.6s-0.3-0.6-0.6-0.6s-0.6,0.3-0.6,0.6S422.9,167.6,423.2,167.6z"/>
					<path class="st4" d="M414.5,167.6c0.3,0,0.6-0.3,0.6-0.6s-0.3-0.6-0.6-0.6s-0.6,0.3-0.6,0.6
						C413.9,167.4,414.2,167.6,414.5,167.6z"/>
					<path class="st4" d="M405.9,166.3c0.3,0,0.6-0.3,0.6-0.6s-0.3-0.6-0.6-0.6s-0.6,0.3-0.6,0.6
						C405.3,166.1,405.6,166.3,405.9,166.3z"/>
					<path class="st4" d="M397.5,163.8c0.3,0,0.6-0.3,0.6-0.6s-0.3-0.6-0.6-0.6s-0.6,0.3-0.6,0.6S397.2,163.8,397.5,163.8z"/>
					<path class="st4" d="M389.7,160c0.3,0,0.6-0.3,0.6-0.6s-0.3-0.6-0.6-0.6s-0.6,0.3-0.6,0.6C389.1,159.7,389.4,160,389.7,160z"/>
					<path class="st4" d="M382.5,155c0.3,0,0.5-0.2,0.5-0.5c0-0.3-0.2-0.5-0.5-0.5s-0.5,0.2-0.5,0.5S382.2,155,382.5,155z"/>
					<path class="st4" d="M376.1,149.1c0.3,0,0.5-0.2,0.5-0.5c0-0.3-0.2-0.5-0.5-0.5s-0.5,0.2-0.5,0.5
						C375.5,148.9,375.8,149.1,376.1,149.1z"/>
					<path class="st4" d="M370.6,142.3c0.3,0,0.5-0.2,0.5-0.5c0-0.3-0.2-0.5-0.5-0.5s-0.5,0.2-0.5,0.5
						C370.1,142,370.3,142.3,370.6,142.3z"/>
					<path class="st4" d="M366.3,134.7c0.3,0,0.5-0.2,0.5-0.5c0-0.3-0.2-0.5-0.5-0.5s-0.5,0.2-0.5,0.5S366,134.7,366.3,134.7z"/>
					<circle class="st4" cx="363.1" cy="126.1" r="0.5"/>
					<path class="st4" d="M361.1,118.1c0.3,0,0.5-0.2,0.5-0.5c0-0.3-0.2-0.5-0.5-0.5c-0.3,0-0.5,0.2-0.5,0.5
						C360.6,117.8,360.8,118.1,361.1,118.1z"/>
					<circle class="st4" cx="360.5" cy="108.8" r="0.5"/>
					<path class="st4" d="M361.1,100.7c0.3,0,0.5-0.2,0.5-0.5s-0.2-0.5-0.5-0.5c-0.3,0-0.5,0.2-0.5,0.5
						C360.6,100.4,360.8,100.7,361.1,100.7z"/>
					<circle class="st4" cx="363.1" cy="91.6" r="0.5"/>
					<path class="st4" d="M366.3,84c0.3,0,0.5-0.2,0.5-0.5s-0.2-0.5-0.5-0.5c-0.3,0-0.5,0.2-0.5,0.5C365.7,83.8,366,84,366.3,84z"/>
					<circle class="st4" cx="370.6" cy="76" r="0.5"/>
					<path class="st4" d="M376.1,69.6c0.3,0,0.5-0.2,0.5-0.5s-0.2-0.5-0.5-0.5c-0.3,0-0.5,0.2-0.5,0.5
						C375.6,69.4,375.8,69.6,376.1,69.6z"/>
					<circle class="st4" cx="382.5" cy="63.2" r="0.5"/>
					<path class="st4" d="M389.7,58.8c0.3,0,0.5-0.2,0.5-0.5s-0.2-0.5-0.5-0.5c-0.3,0-0.5,0.2-0.5,0.5S389.4,58.8,389.7,58.8z"/>
					<path class="st4" d="M397.5,55c0.3,0,0.5-0.2,0.5-0.5c0-0.3-0.2-0.5-0.5-0.5s-0.5,0.2-0.5,0.5C397,54.8,397.3,55,397.5,55z"/>
					<path class="st4" d="M486.4,117.7c0.1,0,0.1,0,0.1-0.1s0-0.1-0.1-0.1s-0.1,0-0.1,0.1S486.4,117.7,486.4,117.7z"/>
					<path class="st4" d="M484.8,126.2c0.1,0,0.1,0,0.1-0.1s0-0.1-0.1-0.1s-0.1,0-0.1,0.1S484.7,126.2,484.8,126.2z"/>
					<path class="st4" d="M482,134.5c0.1,0,0.1,0,0.1-0.1s0-0.1-0.1-0.1s-0.1,0-0.1,0.1S482,134.5,482,134.5z"/>
					<path class="st4" d="M478.2,142.4c0.1,0,0.1,0,0.1-0.1s0-0.1-0.1-0.1s-0.1,0-0.1,0.1S478.2,142.4,478.2,142.4z"/>
					<path class="st4" d="M467.8,156.4c0.1,0,0.1,0,0.1-0.1s0-0.1-0.1-0.1s-0.1,0-0.1,0.1S467.8,156.4,467.8,156.4z"/>
					<path class="st4" d="M461.4,162.2c0.1,0,0.1,0,0.1-0.1s0-0.1-0.1-0.1s-0.1,0-0.1,0.1C461.2,162.2,461.3,162.2,461.4,162.2z"/>
					<path class="st4" d="M454.2,167.2c0.1,0,0.1,0,0.1-0.1s0-0.1-0.1-0.1s-0.1,0-0.1,0.1S454.1,167.2,454.2,167.2z"/>
					<path class="st4" d="M446.5,171.3c0.1,0,0.1,0,0.1-0.1s0-0.1-0.1-0.1s-0.1,0-0.1,0.1S446.4,171.3,446.5,171.3z"/>
					<path class="st4" d="M438.3,174.3c0.1,0,0.1,0,0.1-0.1s0-0.1-0.1-0.1s-0.1,0-0.1,0.1S438.2,174.3,438.3,174.3z"/>
					<path class="st4" d="M429.7,176.2c0.1,0,0.1,0,0.1-0.1s0-0.1-0.1-0.1s-0.1,0-0.1,0.1S429.7,176.2,429.7,176.2z"/>
					<path class="st4" d="M421.1,177.1c0.1,0,0.1,0,0.1-0.1s0-0.1-0.1-0.1s-0.1,0-0.1,0.1S421,177.1,421.1,177.1z"/>
					<path class="st4" d="M412.3,176.8c0.1,0,0.1,0,0.1-0.1s0-0.1-0.1-0.1s-0.1,0-0.1,0.1C412.2,176.7,412.3,176.8,412.3,176.8z"/>
					<path class="st4" d="M403.7,175.4c0.1,0,0.1,0,0.1-0.1s0-0.1-0.1-0.1s-0.1,0-0.1,0.1S403.7,175.4,403.7,175.4z"/>
					<path class="st4" d="M395.3,172.9c0.1,0,0.1,0,0.1-0.1s0-0.1-0.1-0.1s-0.1,0-0.1,0.1S395.3,172.9,395.3,172.9z"/>
					<path class="st4" d="M387.4,169.4c0.1,0,0.1,0,0.1-0.1s0-0.1-0.1-0.1s-0.1,0-0.1,0.1C387.3,169.3,387.3,169.4,387.4,169.4z"/>
					<path class="st4" d="M379.9,164.8C379.9,164.8,380,164.8,379.9,164.8c0.1-0.1,0-0.2,0-0.2C379.8,164.6,379.8,164.7,379.9,164.8
						C379.8,164.8,379.9,164.8,379.9,164.8z"/>
					<path class="st4" d="M373.1,159.4C373.1,159.4,373.1,159.3,373.1,159.4c0.1-0.1,0-0.2,0-0.2C373,159.2,373,159.2,373.1,159.4
						C373,159.3,373,159.4,373.1,159.4z"/>
					<path class="st4" d="M367,153.1C367,153.1,367.1,153.1,367,153.1c0.1-0.1,0-0.2,0-0.2C366.9,152.9,366.9,153,367,153.1
						C366.9,153.1,367,153.1,367,153.1z"/>
					<circle class="st4" cx="361.8" cy="146" r="0.1"/>
					<path class="st4" d="M357.5,138.5C357.5,138.5,357.6,138.5,357.5,138.5c0.1-0.1,0-0.2,0-0.2S357.4,138.4,357.5,138.5
						C357.4,138.5,357.4,138.5,357.5,138.5z"/>
					<path class="st4" d="M354.2,130.4C354.3,130.4,354.3,130.4,354.2,130.4c0.1-0.1,0-0.2,0-0.2
						C354.2,130.2,354.1,130.3,354.2,130.4C354.1,130.4,354.2,130.4,354.2,130.4z"/>
					<path class="st4" d="M352,122C352,122,352.1,121.9,352,122c0.1-0.1,0-0.2,0-0.2C352,121.8,351.9,121.8,352,122
						C351.9,121.9,352,122,352,122z"/>
					<circle class="st4" cx="350.9" cy="113.2" r="0.1"/>
					<path class="st4" d="M350.9,104.6C350.9,104.6,351,104.5,350.9,104.6c0.1-0.1,0-0.2,0-0.2S350.8,104.4,350.9,104.6
						C350.8,104.5,350.8,104.6,350.9,104.6z"/>
					<circle class="st4" cx="352" cy="95.8" r="0.1"/>
					<path class="st4" d="M354.2,87.5C354.3,87.5,354.3,87.4,354.2,87.5c0.1-0.1,0-0.2,0-0.2C354.2,87.3,354.1,87.3,354.2,87.5
						C354.1,87.4,354.2,87.5,354.2,87.5z"/>
					<path class="st4" d="M357.5,79.4C357.5,79.4,357.6,79.3,357.5,79.4c0.1-0.1,0-0.2,0-0.2S357.4,79.2,357.5,79.4
						C357.4,79.3,357.4,79.4,357.5,79.4z"/>
					<path class="st4" d="M361.8,71.8C361.8,71.8,361.9,71.7,361.8,71.8c0.1-0.1,0-0.2,0-0.2C361.7,71.6,361.7,71.6,361.8,71.8
						C361.7,71.7,361.7,71.8,361.8,71.8z"/>
					<path class="st4" d="M367,64.7C367,64.7,367,64.7,367,64.7c0.1-0.1,0-0.1,0-0.1S366.9,64.7,367,64.7
						C366.9,64.7,367,64.7,367,64.7z"/>
					<circle class="st4" cx="373.1" cy="58.4" r="0.1"/>
					<path class="st4" d="M379.9,53.1C379.9,53.1,380,53,379.9,53.1c0.1-0.1,0-0.2,0-0.2C379.8,52.9,379.8,52.9,379.9,53.1
						C379.8,53,379.9,53.1,379.9,53.1z"/>
					<circle class="st4" cx="387.4" cy="48.4" r="0.1"/>
				</g>
				<path class="st2" d="M395.3,45C395.4,45,395.4,45,395.3,45c0.1-0.1,0-0.2,0-0.2C395.3,44.8,395.3,44.9,395.3,45
					C395.3,45,395.3,45,395.3,45z"/>
				<path class="st2" d="M403.7,42.5C403.8,42.5,403.8,42.5,403.7,42.5c0.1-0.1,0-0.2,0-0.2S403.6,42.4,403.7,42.5
					C403.6,42.5,403.7,42.5,403.7,42.5z"/>
				<path class="st2" d="M412.3,41.1C412.4,41.1,412.4,41.1,412.3,41.1c0.1-0.1,0-0.2,0-0.2C412.3,41,412.3,41,412.3,41.1
					C412.3,41.1,412.3,41.1,412.3,41.1z"/>
				<path class="st2" d="M421.1,40.8C421.1,40.8,421.1,40.8,421.1,40.8c0.1-0.1,0-0.2,0-0.2C421,40.7,421,40.7,421.1,40.8
					C421,40.8,421,40.8,421.1,40.8z"/>
				<path class="st2" d="M429.7,41.7C429.8,41.7,429.8,41.6,429.7,41.7c0.1-0.1,0-0.2,0-0.2S429.7,41.5,429.7,41.7
					C429.7,41.6,429.7,41.7,429.7,41.7z"/>
				<path class="st2" d="M438.3,43.6C438.3,43.6,438.3,43.6,438.3,43.6c0.1-0.1,0-0.2,0-0.2C438.2,43.5,438.2,43.5,438.3,43.6
					C438.2,43.6,438.2,43.6,438.3,43.6z"/>
				<path class="st2" d="M446.5,46.6C446.5,46.6,446.5,46.6,446.5,46.6c0.1-0.1,0-0.2,0-0.2S446.4,46.5,446.5,46.6
					C446.4,46.6,446.4,46.6,446.5,46.6z"/>
				<path class="st2" d="M454.2,50.7C454.2,50.7,454.3,50.6,454.2,50.7c0.1-0.1,0-0.2,0-0.2C454.1,50.5,454.1,50.5,454.2,50.7
					C454.1,50.6,454.1,50.7,454.2,50.7z"/>
				<path class="st2" d="M461.4,55.7C461.4,55.7,461.4,55.6,461.4,55.7c0.1-0.1,0-0.2,0-0.2C461.3,55.5,461.3,55.5,461.4,55.7
					C461.3,55.6,461.3,55.7,461.4,55.7z"/>
				<circle class="st2" cx="467.8" cy="61.5" r="0.1"/>
				<circle class="st2" cx="473.5" cy="68.1" r="0.1"/>
				<path class="st2" d="M478.2,75.5C478.3,75.5,478.3,75.5,478.2,75.5c0.1-0.1,0-0.2,0-0.2C478.2,75.3,478.2,75.4,478.2,75.5
					C478.2,75.5,478.2,75.5,478.2,75.5z"/>
				<path class="st2" d="M482,83.4C482.1,83.4,482.1,83.3,482,83.4c0.1-0.1,0-0.2,0-0.2C482,83.2,481.9,83.2,482,83.4
					C481.9,83.3,482,83.4,482,83.4z"/>
				<path class="st2" d="M484.8,91.7c0.1,0,0.1,0,0.1-0.1c0-0.1,0-0.1-0.1-0.1s-0.1,0-0.1,0.1C484.7,91.6,484.7,91.7,484.8,91.7z"/>
				<path class="st2" d="M486.4,100.2c0.1,0,0.1,0,0.1-0.1s0-0.1-0.1-0.1s-0.1,0-0.1,0.1S486.4,100.2,486.4,100.2z"/>
			</g>
		</g>
		<g>
			<defs>
				<rect id="SVGID_3_" width="504" height="288"/>
			</defs>
			<clipPath id="SVGID_4_">
				<use xlink:href="#SVGID_3_"  style="overflow:visible;"/>
			</clipPath>
			<path class="st5" d="M25.2,194.7c18.9,7.1,34.3,21,49.6,34.3s31.4,26.6,50.9,31.9c22.7,6.2,46.8,0.7,69.7-5
				c22.9-5.7,46.8-11.6,69.7-6.1c22.9,5.5,44.1,26.3,41.1,49.7c-2,16.2-15,29.3-29.9,36.1s-31.5,8.1-47.8,9.2
				c-63.1,4.3-126.4,5.6-189.6,3.9c-17.5-0.5-35.6-1.3-50.9-9.8c-21-11.6-32.5-35.7-35.1-59.5C-52.4,231.7-36,171.9,25.2,194.7z"/>
		</g>
		<g>
			<defs>
				<rect id="SVGID_5_" width="504" height="288"/>
			</defs>
			<clipPath id="SVGID_6_">
				<use xlink:href="#SVGID_5_"  style="overflow:visible;"/>
			</clipPath>
			<path class="st6" d="M13.3,210.4c9.1,6.8,15.3,17.8,21.5,28.3s12.9,21.1,22.5,26.9c11.2,6.7,24.8,5.9,37.8,4.8s26.6-2.1,38,4.1
				c11.4,6.3,19.7,22.4,14.8,37.4c-3.4,10.4-12.2,17.5-21.1,20.2s-17.9,1.7-26.8,0.5c-34.2-4.5-68.1-11-101.5-19.5
				c-9.2-2.3-18.8-5-25.7-12.4c-9.5-10-12.2-27.2-10.2-43.2C-33.3,225.7-16,188.3,13.3,210.4z"/>
		</g>
		<g>
			<defs>
				<rect id="SVGID_7_" width="504" height="288"/>
			</defs>
			<clipPath id="SVGID_8_">
				<use xlink:href="#SVGID_7_"  style="overflow:visible;"/>
			</clipPath>
			<path class="st7" d="M289.5,34.8c9.4,18,31.5,28.4,51.4,24.2c11.7-2.5,22.2-9.3,33.8-12.4c11.6-3,26.4-0.7,31.6,10.2
				c7.7,16.1-11.8,34.1-8.1,51.5c2.5,12,15.6,19.3,27.8,19.4s23.8-5.3,34.8-10.5c11.1-5.2,22.7-10.5,34.9-10.2
				c10,0.2,19.8,4.2,29.8,3.2c16.3-1.7,28.4-16.7,33.4-32.4c8.1-25.4,1.8-54.1-13.1-76.3c-14.9-22.1-37.7-38.1-62.3-48.5
				c-41.9-17.7-90.1-19.1-133.4-5.6C314.1-41.2,265.4-11.1,289.5,34.8z"/>
		</g>
		<g>
			<defs>
				<rect id="SVGID_9_" width="504" height="288"/>
			</defs>
			<clipPath id="SVGID_10_">
				<use xlink:href="#SVGID_9_"  style="overflow:visible;"/>
			</clipPath>
			<path class="st8" d="M340.8,23.3c10.3,12.7,29.3,17.5,44.4,11.1c8.9-3.8,16-10.8,24.7-15.1c8.7-4.2,20.8-4.7,26.5,3.1
				c8.6,11.5-4,28.8,1.6,42c3.8,9.1,15.3,12.8,25,11c9.7-1.8,17.9-7.9,25.9-13.7c7.9-5.8,16.3-11.8,26-13.5c8-1.4,16.3,0.3,24-2.1
				c12.6-3.9,19.8-17.7,21.3-30.8c2.4-21.4-7-43.1-22.2-58.2s-35.8-24.2-56.8-28.6c-35.9-7.4-74.2-1-106.3,16.4
				C348.4-40.6,314.7-9.2,340.8,23.3z"/>
		</g>
		<g>
			<defs>
				<rect id="SVGID_11_" width="504" height="288"/>
			</defs>
			<clipPath id="SVGID_12_">
				<use xlink:href="#SVGID_11_"  style="overflow:visible;"/>
			</clipPath>
			<g class="st9">
				<path d="M314.5,307.3c-14.7,0-29.1-8.4-38.4-17.4c-8.4-8.1-15.2-17.8-21.7-27.2c-4.3-6.1-8.6-12.4-13.4-18.2
					c-8.6-10.4-26.3-27.6-48.2-26c-15.9,1.1-29.1,11.8-41.8,22.1c-1.7,1.4-3.5,2.8-5.2,4.2c-19.6,15.5-36.7,20.5-50.8,14.9
					c-12.7-5-19.9-17.7-23.7-27.5c-2-5.3-3.6-10.8-5.2-16.1c-1.8-6.3-3.7-12.8-6.4-19c-14.3-33-53-52.9-88.2-45.5l-0.2-1
					c35.6-7.6,74.8,12.7,89.3,46.1c2.7,6.2,4.6,12.7,6.4,19.1c1.5,5.3,3.1,10.8,5.1,16c3.7,9.6,10.8,22,23.1,26.9
					c13.8,5.5,30.6,0.5,49.8-14.7c1.7-1.4,3.4-2.8,5.2-4.2c12.8-10.4,26.1-21.1,42.4-22.3c22.4-1.6,40.3,15.8,49,26.4
					c4.8,5.8,9.2,12.1,13.5,18.3c6.5,9.3,13.3,19,21.6,27c12.1,11.7,32.9,22.4,51.6,14.3l0.4,0.9
					C324.1,306.4,319.3,307.3,314.5,307.3z"/>
			</g>
		</g>
		<g>
			<defs>
				<rect id="SVGID_13_" width="504" height="288"/>
			</defs>
			<clipPath id="SVGID_14_">
				<use xlink:href="#SVGID_13_"  style="overflow:visible;"/>
			</clipPath>
			<g class="st10">
				<path d="M527,147.8c-0.6-14.6-1.2-31.1-8.5-44.9c-6.7-12.7-22.1-24-37.3-19.9c-5.6,1.5-11,4.9-16.1,8.2
					c-8.8,5.6-17.1,10.8-26.3,7.3c-9.4-3.7-12.9-15.2-13-24.8c0-3.1,0.2-6.3,0.3-9.3c0.4-6.5,0.8-13.2-1-19.5
					c-4.8-16.7-23-25.2-39.1-26.3c-12.1-0.8-24.3,1.6-36,3.9c-4.6,0.9-9.4,1.9-14.1,2.6c-21.5,3.4-37.6,0.9-49.3-7.6
					c-7.7-5.6-13-15.6-13.4-25.5c-0.3-7.8,2.4-14.6,7.6-19.1l0.7,0.8c-5,4.3-7.5,10.8-7.2,18.3c0.4,9.6,5.5,19.3,13,24.7
					c11.4,8.3,27.3,10.8,48.5,7.4c4.7-0.7,9.4-1.7,14.1-2.6c11.8-2.3,24.1-4.8,36.3-4c16.4,1.1,35.1,9.8,40,27
					c1.8,6.5,1.4,13.3,1,19.9c-0.2,3-0.4,6.2-0.3,9.3c0.1,9.2,3.4,20.4,12.4,23.8c8.7,3.4,16.8-1.8,25.4-7.2
					c5.2-3.3,10.7-6.8,16.4-8.3c15.8-4.2,31.6,7.4,38.5,20.4c7.4,14,8.1,30.7,8.6,45.4L527,147.8z"/>
			</g>
		</g>
		<g>
			<defs>
				<rect id="SVGID_15_" width="504" height="288"/>
			</defs>
			<clipPath id="SVGID_16_">
				<use xlink:href="#SVGID_15_"  style="overflow:visible;"/>
			</clipPath>
			<g class="st11">
				<rect x="107" y="182.5" transform="matrix(0.7071 -0.7071 0.7071 0.7071 -110.3615 134.7632)" width="1" height="36.3"/>
			</g>
		</g>
		<g>
			<defs>
				<rect id="SVGID_17_" width="504" height="288"/>
			</defs>
			<clipPath id="SVGID_18_">
				<use xlink:href="#SVGID_17_"  style="overflow:visible;"/>
			</clipPath>
			<g class="st12">
				<rect x="469.8" y="131.1" transform="matrix(0.7071 -0.7071 0.7071 0.7071 34.7833 375.1658)" width="1" height="29"/>
			</g>
		</g>
		<g>
			<defs>
				<rect id="SVGID_19_" width="504" height="288"/>
			</defs>
			<clipPath id="SVGID_20_">
				<use xlink:href="#SVGID_19_"  style="overflow:visible;"/>
			</clipPath>
			<g class="st13">
				<g>
					<path class="st4" d="M43.2,56.5c0.6,0,1-0.5,1-1s-0.5-1-1-1s-1,0.5-1,1C42.2,56.1,42.7,56.5,43.2,56.5z"/>
					<path class="st4" d="M53.1,56.5c0.6,0,1-0.5,1-1s-0.5-1-1-1s-1,0.5-1,1C52.1,56.1,52.5,56.5,53.1,56.5z"/>
					<path class="st4" d="M63,56.5c0.6,0,1-0.5,1-1s-0.5-1-1-1s-1,0.5-1,1C62,56.1,62.4,56.5,63,56.5z"/>
					<path class="st4" d="M72.9,56.5c0.6,0,1-0.5,1-1s-0.5-1-1-1s-1,0.5-1,1C71.8,56.1,72.3,56.5,72.9,56.5z"/>
					<path class="st4" d="M82.7,56.5c0.6,0,1-0.5,1-1s-0.5-1-1-1s-1,0.5-1,1C81.7,56.1,82.2,56.5,82.7,56.5z"/>
					<circle class="st4" cx="43.2" cy="65.4" r="1"/>
					<circle class="st4" cx="53.1" cy="65.4" r="1"/>
					<circle class="st4" cx="63" cy="65.4" r="1"/>
					<circle class="st4" cx="72.9" cy="65.4" r="1"/>
					<path class="st4" d="M82.7,66.4c0.6,0,1-0.5,1-1s-0.5-1-1-1s-1,0.5-1,1S82.2,66.4,82.7,66.4z"/>
					<circle class="st4" cx="43.2" cy="75.2" r="1"/>
					<circle class="st4" cx="53.1" cy="75.2" r="1"/>
					<circle class="st4" cx="63" cy="75.2" r="1"/>
					<circle class="st4" cx="72.9" cy="75.2" r="1"/>
					<path class="st4" d="M82.7,76.3c0.6,0,1-0.5,1-1s-0.5-1-1-1s-1,0.5-1,1S82.2,76.3,82.7,76.3z"/>
					<circle class="st4" cx="43.2" cy="85.1" r="1"/>
					<circle class="st4" cx="53.1" cy="85.1" r="1"/>
					<circle class="st4" cx="63" cy="85.1" r="1"/>
					<circle class="st4" cx="72.9" cy="85.1" r="1"/>
					<path class="st4" d="M82.7,86.1c0.6,0,1-0.5,1-1s-0.5-1-1-1s-1,0.5-1,1S82.2,86.1,82.7,86.1z"/>
					<circle class="st4" cx="43.2" cy="95" r="1"/>
					<circle class="st4" cx="53.1" cy="95" r="1"/>
					<circle class="st4" cx="63" cy="95" r="1"/>
					<circle class="st4" cx="72.9" cy="95" r="1"/>
					<path class="st4" d="M82.7,96c0.6,0,1-0.5,1-1c0-0.6-0.5-1-1-1s-1,0.5-1,1S82.2,96,82.7,96z"/>
					<circle class="st4" cx="43.2" cy="104.9" r="1"/>
					<circle class="st4" cx="53.1" cy="104.9" r="1"/>
					<circle class="st4" cx="63" cy="104.9" r="1"/>
					<circle class="st4" cx="72.9" cy="104.9" r="1"/>
					<path class="st4" d="M82.7,105.9c0.6,0,1-0.5,1-1s-0.5-1-1-1s-1,0.5-1,1S82.2,105.9,82.7,105.9z"/>
					<path class="st4" d="M43.2,115.8c0.6,0,1-0.5,1-1c0-0.6-0.5-1-1-1s-1,0.5-1,1C42.2,115.3,42.7,115.8,43.2,115.8z"/>
					<path class="st4" d="M53.1,115.8c0.6,0,1-0.5,1-1c0-0.6-0.5-1-1-1s-1,0.5-1,1C52.1,115.3,52.5,115.8,53.1,115.8z"/>
					<path class="st4" d="M63,115.8c0.6,0,1-0.5,1-1c0-0.6-0.5-1-1-1s-1,0.5-1,1C62,115.3,62.4,115.8,63,115.8z"/>
					<path class="st4" d="M72.9,115.8c0.6,0,1-0.5,1-1c0-0.6-0.5-1-1-1s-1,0.5-1,1C71.8,115.3,72.3,115.8,72.9,115.8z"/>
					<path class="st4" d="M82.7,115.8c0.6,0,1-0.5,1-1c0-0.6-0.5-1-1-1s-1,0.5-1,1C81.7,115.3,82.2,115.8,82.7,115.8z"/>
					<circle class="st4" cx="43.2" cy="124.6" r="1"/>
					<circle class="st4" cx="53.1" cy="124.6" r="1"/>
					<circle class="st4" cx="63" cy="124.6" r="1"/>
					<circle class="st4" cx="72.9" cy="124.6" r="1"/>
					<path class="st4" d="M82.7,125.6c0.6,0,1-0.5,1-1s-0.5-1-1-1s-1,0.5-1,1S82.2,125.6,82.7,125.6z"/>
					<circle class="st4" cx="43.2" cy="134.5" r="1"/>
					<circle class="st4" cx="53.1" cy="134.5" r="1"/>
					<circle class="st4" cx="63" cy="134.5" r="1"/>
					<circle class="st4" cx="72.9" cy="134.5" r="1"/>
					<path class="st4" d="M82.7,135.5c0.6,0,1-0.5,1-1c0-0.6-0.5-1-1-1s-1,0.5-1,1S82.2,135.5,82.7,135.5z"/>
					<circle class="st4" cx="43.2" cy="144.4" r="1"/>
					<circle class="st4" cx="53.1" cy="144.4" r="1"/>
					<circle class="st4" cx="63" cy="144.4" r="1"/>
					<circle class="st4" cx="72.9" cy="144.4" r="1"/>
					<path class="st4" d="M82.7,145.4c0.6,0,1-0.5,1-1c0-0.6-0.5-1-1-1s-1,0.5-1,1C81.7,144.9,82.2,145.4,82.7,145.4z"/>
					<circle class="st4" cx="43.2" cy="154.3" r="1"/>
					<circle class="st4" cx="53.1" cy="154.3" r="1"/>
					<circle class="st4" cx="63" cy="154.3" r="1"/>
					<circle class="st4" cx="72.9" cy="154.3" r="1"/>
					<path class="st4" d="M82.7,155.3c0.6,0,1-0.5,1-1c0-0.6-0.5-1-1-1s-1,0.5-1,1C81.7,154.8,82.2,155.3,82.7,155.3z"/>
				</g>
				<g>
					<path class="st4" d="M24,108.2c0-0.3,0.2-0.5,0.5-0.5l0,0c0.3,0,0.5,0.2,0.5,0.5l0,0c0,0.3-0.2,0.5-0.5,0.5l0,0
						C24.2,108.7,24,108.5,24,108.2z M24,103.2c0-0.3,0.2-0.5,0.5-0.5l0,0c0.3,0,0.5,0.2,0.5,0.5l0,0c0,0.3-0.2,0.5-0.5,0.5l0,0
						C24.2,103.7,24,103.5,24,103.2z M24,98.2c0-0.3,0.2-0.5,0.5-0.5l0,0c0.3,0,0.5,0.2,0.5,0.5l0,0c0,0.3-0.2,0.5-0.5,0.5l0,0
						C24.2,98.7,24,98.5,24,98.2z M24,93.2c0-0.3,0.2-0.5,0.5-0.5l0,0c0.3,0,0.5,0.2,0.5,0.5l0,0c0,0.3-0.2,0.5-0.5,0.5l0,0
						C24.2,93.7,24,93.5,24,93.2z M24,88.2c0-0.3,0.2-0.5,0.5-0.5l0,0c0.3,0,0.5,0.2,0.5,0.5l0,0c0,0.3-0.2,0.5-0.5,0.5l0,0
						C24.2,88.7,24,88.5,24,88.2z M24,83.2c0-0.3,0.2-0.5,0.5-0.5l0,0c0.3,0,0.5,0.2,0.5,0.5l0,0c0,0.3-0.2,0.5-0.5,0.5l0,0
						C24.2,83.7,24,83.5,24,83.2z M24,78.2c0-0.3,0.2-0.5,0.5-0.5l0,0c0.3,0,0.5,0.2,0.5,0.5l0,0c0,0.3-0.2,0.5-0.5,0.5l0,0
						C24.2,78.7,24,78.5,24,78.2z M24,73.2c0-0.3,0.2-0.5,0.5-0.5l0,0c0.3,0,0.5,0.2,0.5,0.5l0,0c0,0.3-0.2,0.5-0.5,0.5l0,0
						C24.2,73.7,24,73.5,24,73.2z M24,68.2c0-0.3,0.2-0.5,0.5-0.5l0,0c0.3,0,0.5,0.2,0.5,0.5l0,0c0,0.3-0.2,0.5-0.5,0.5l0,0
						C24.2,68.7,24,68.5,24,68.2z M24,63.2c0-0.3,0.2-0.5,0.5-0.5l0,0c0.3,0,0.5,0.2,0.5,0.5l0,0c0,0.3-0.2,0.5-0.5,0.5l0,0
						C24.2,63.7,24,63.5,24,63.2z M24,58.2c0-0.3,0.2-0.5,0.5-0.5l0,0c0.3,0,0.5,0.2,0.5,0.5l0,0c0,0.3-0.2,0.5-0.5,0.5l0,0
						C24.2,58.7,24,58.5,24,58.2z M24,53.2c0-0.3,0.2-0.5,0.5-0.5l0,0c0.3,0,0.5,0.2,0.5,0.5l0,0c0,0.3-0.2,0.5-0.5,0.5l0,0
						C24.2,53.7,24,53.5,24,53.2z M24,48.2c0-0.3,0.2-0.5,0.5-0.5l0,0c0.3,0,0.5,0.2,0.5,0.5l0,0c0,0.3-0.2,0.5-0.5,0.5l0,0
						C24.2,48.7,24,48.5,24,48.2z M24,43.2c0-0.3,0.2-0.5,0.5-0.5l0,0c0.3,0,0.5,0.2,0.5,0.5l0,0c0,0.3-0.2,0.5-0.5,0.5l0,0
						C24.2,43.7,24,43.5,24,43.2z M24,38.2c0-0.3,0.2-0.5,0.5-0.5l0,0c0.3,0,0.5,0.2,0.5,0.5l0,0c0,0.3-0.2,0.5-0.5,0.5l0,0
						C24.2,38.7,24,38.5,24,38.2z M24,33.2c0-0.3,0.2-0.5,0.5-0.5l0,0c0.3,0,0.5,0.2,0.5,0.5l0,0c0,0.3-0.2,0.5-0.5,0.5l0,0
						C24.2,33.7,24,33.5,24,33.2z M24,28.2c0-0.3,0.2-0.5,0.5-0.5l0,0c0.3,0,0.5,0.2,0.5,0.5l0,0c0,0.3-0.2,0.5-0.5,0.5l0,0
						C24.2,28.7,24,28.5,24,28.2z M24,23.2c0-0.3,0.2-0.5,0.5-0.5l0,0c0.3,0,0.5,0.2,0.5,0.5l0,0c0,0.3-0.2,0.5-0.5,0.5l0,0
						C24.2,23.7,24,23.5,24,23.2z"/>
				</g>
				<g>
					<g>
						<g>
							<g>
								<path class="st4" d="M146.9,155.2c-0.1,0-0.3,0-0.4-0.1l-8.6-8.6c-0.2-0.2-0.2-0.5,0-0.7s0.5-0.2,0.7,0l8.6,8.6
									c0.2,0.2,0.2,0.5,0,0.7C147.1,155.2,147,155.2,146.9,155.2z"/>
							</g>
							<g>
								<path class="st14" d="M138.3,155.2c-0.1,0-0.3,0-0.4-0.1c-0.2-0.2-0.2-0.5,0-0.7l8.6-8.6c0.2-0.2,0.5-0.2,0.7,0
									s0.2,0.5,0,0.7l-8.6,8.6C138.6,155.2,138.4,155.2,138.3,155.2z"/>
							</g>
						</g>
					</g>
					<g>
						<g>
							<g>
								<path class="st4" d="M397.4,224.8c-0.1,0-0.3,0-0.4-0.1l-8.6-8.6c-0.2-0.2-0.2-0.5,0-0.7s0.5-0.2,0.7,0l8.6,8.6
									c0.2,0.2,0.2,0.5,0,0.7C397.7,224.8,397.6,224.8,397.4,224.8z"/>
							</g>
							<g>
								<path class="st14" d="M388.8,224.8c-0.1,0-0.3,0-0.4-0.1c-0.2-0.2-0.2-0.5,0-0.7l8.6-8.6c0.2-0.2,0.5-0.2,0.7,0
									s0.2,0.5,0,0.7l-8.6,8.6C389.1,224.8,389,224.8,388.8,224.8z"/>
							</g>
						</g>
					</g>
				</g>
				<g>
					<g>
						<g>
							<path d="M448.4,225.2c-2.6,0-4.7-2.1-4.7-4.7c0-2.6,2.1-4.7,4.7-4.7s4.7,2.1,4.7,4.7C453.1,223.1,451,225.2,448.4,225.2z
								 M448.4,216.9c-2,0-3.7,1.6-3.7,3.7s1.6,3.7,3.7,3.7c2,0,3.7-1.6,3.7-3.7C452.1,218.5,450.5,216.9,448.4,216.9z"/>
						</g>
					</g>
				</g>
				<g>
					<g>
						<g>
							<path d="M56.5,244.3c-2.6,0-4.7-2.1-4.7-4.7c0-2.6,2.1-4.7,4.7-4.7c2.6,0,4.7,2.1,4.7,4.7C61.1,242.2,59,244.3,56.5,244.3z
								 M56.5,235.9c-2,0-3.7,1.6-3.7,3.7s1.6,3.7,3.7,3.7c2,0,3.7-1.6,3.7-3.7C60.1,237.6,58.5,235.9,56.5,235.9z"/>
						</g>
					</g>
				</g>
				<g>
					<path class="st4" d="M241.3,38.4c0-1.9,1.5-3.4,3.4-3.4l0,0c1.9,0,3.4,1.5,3.4,3.4l0,0c0,1.9-1.5,3.4-3.4,3.4l0,0
						C242.9,41.9,241.3,40.3,241.3,38.4z M214,38.4c0-1.9,1.5-3.4,3.4-3.4l0,0c1.9,0,3.4,1.5,3.4,3.4l0,0c0,1.9-1.5,3.4-3.4,3.4l0,0
						C215.5,41.9,214,40.3,214,38.4z M186.6,38.4c0-1.9,1.5-3.4,3.4-3.4l0,0c1.9,0,3.4,1.5,3.4,3.4l0,0c0,1.9-1.5,3.4-3.4,3.4l0,0
						C188.1,41.9,186.6,40.3,186.6,38.4z M159.2,38.4c0-1.9,1.6-3.4,3.4-3.4l0,0c1.9,0,3.4,1.5,3.4,3.4l0,0c0,1.9-1.5,3.4-3.4,3.4
						l0,0C160.8,41.9,159.2,40.3,159.2,38.4z"/>
				</g>
				<g>
					<path d="M362.7,260c-0.1,0-0.3,0-0.4-0.1l-16-16c-0.2-0.2-0.2-0.5,0-0.7s0.5-0.2,0.7,0l16,16c0.2,0.2,0.2,0.5,0,0.7
						C363,259.9,362.9,260,362.7,260z"/>
				</g>
			</g>
		</g>
	</g>
</g>
</svg>
