<?xml version="1.0" encoding="UTF-8"?>
<svg version="1.1" xmlns="http://www.w3.org/2000/svg" width="120" height="48">
<path d="M0 0 C1.29550781 -0.02578125 2.59101562 -0.0515625 3.92578125 -0.078125 C8.05419432 0.2819858 10.30930902 0.85163064 13.6875 3.25 C17.87650825 9.6130505 17.13130131 16.86532571 17.0625 24.25 C17.07410156 25.49523437 17.08570313 26.74046875 17.09765625 28.0234375 C17.05893966 40.12882584 17.05893966 40.12882584 13.6875 45.25 C9.28321647 48.35071685 5.49261832 48.65734828 0.1875 48.625 C-1.0809375 48.63273437 -2.349375 48.64046875 -3.65625 48.6484375 C-7.57425025 48.22147593 -9.98656236 47.33360211 -13.3125 45.25 C-15.73386226 41.61795662 -15.64179639 39.69856165 -15.6875 35.375 C-15.71585938 34.16070312 -15.74421875 32.94640625 -15.7734375 31.6953125 C-15.21182167 27.49747217 -14.46219015 26.0730195 -11.3125 23.25 C-8.4799193 21.85421474 -5.57112333 20.88299606 -2.5625 19.9375 C-1.76972656 19.67388672 -0.97695313 19.41027344 -0.16015625 19.13867188 C1.78426086 18.49443729 3.73528119 17.87019178 5.6875 17.25 C6.0175 14.94 6.3475 12.63 6.6875 10.25 C2.99263897 7.78675931 1.05456908 7.86008312 -3.3125 8.25 C-5.41608381 9.79262813 -6.15304159 10.93108317 -7.3125 13.25 C-9.9525 13.25 -12.5925 13.25 -15.3125 13.25 C-15.74744462 8.81356484 -15.85251196 6.92136622 -13 3.375 C-8.72078216 -0.0085676 -5.32852546 0.06324659 0 0 Z M-0.375 28.0625 C-1.25285156 28.39894531 -2.13070312 28.73539063 -3.03515625 29.08203125 C-5.61058908 30.16930812 -5.61058908 30.16930812 -7.3125 33.25 C-7.23028291 36.32665027 -7.23028291 36.32665027 -6.3125 39.25 C-2.5919164 41.73038907 -0.71453429 41.71337203 3.6875 41.25 C6.34927841 40.09074462 6.34927841 40.09074462 7.6875 37.25 C8.01146453 33.55892873 7.91682784 29.94472631 7.6875 26.25 C4.47435171 26.25 2.59543839 26.89444838 -0.375 28.0625 Z " fill="#093870" transform="translate(59.3125,-0.25)"/>
</svg>
